<svg xmlns="http://www.w3.org/2000/svg" width="510.75" viewBox="0 0 510.75 128.25" height="128.25" version="1.0"><defs><clipPath id="a"><path d="M 477 47 L 509.140625 47 L 509.140625 84 L 477 84 Z M 477 47"/></clipPath><clipPath id="b"><path d="M 6.3125 4 L 101.652344 4 L 101.652344 100.929688 L 6.3125 100.929688 Z M 6.3125 4"/></clipPath><clipPath id="c"><path d="M 7.796875 50.699219 L 30.695312 99.257812 L 87.734375 84.167969 L 100.027344 26.167969 L 50.707031 5.46875 Z M 30.34375 100.65625 C 30.097656 100.65625 29.871094 100.515625 29.761719 100.289062 L 6.449219 50.851562 C 6.335938 50.613281 6.382812 50.328125 6.566406 50.136719 L 50.078125 4.265625 C 50.261719 4.070312 50.546875 4.011719 50.789062 4.113281 L 101.011719 25.191406 C 101.292969 25.308594 101.457031 25.617188 101.390625 25.917969 L 88.90625 84.820312 C 88.855469 85.054688 88.675781 85.246094 88.441406 85.304688 L 30.503906 100.632812 C 30.449219 100.648438 30.394531 100.65625 30.34375 100.65625 Z M 30.34375 100.65625"/></clipPath><clipPath id="d"><path d="M 31.246094 27 L 126.585938 27 L 126.585938 124 L 31.246094 124 Z M 31.246094 27"/></clipPath><clipPath id="e"><path d="M 32.855469 73.84375 L 55.757812 122.398438 L 112.792969 107.308594 L 125.085938 49.3125 L 75.761719 28.613281 Z M 55.40625 123.796875 C 55.160156 123.796875 54.929688 123.65625 54.820312 123.429688 L 31.507812 73.992188 C 31.394531 73.753906 31.441406 73.472656 31.621094 73.277344 L 75.140625 27.410156 C 75.324219 27.214844 75.605469 27.15625 75.851562 27.257812 L 126.070312 48.332031 C 126.355469 48.453125 126.511719 48.757812 126.449219 49.058594 L 113.96875 107.960938 C 113.917969 108.199219 113.738281 108.386719 113.503906 108.449219 L 55.566406 123.773438 C 55.511719 123.789062 55.457031 123.796875 55.40625 123.796875 Z M 55.40625 123.796875"/></clipPath><clipPath id="f"><path d="M 49.582031 4 L 126.585938 4 L 126.585938 49.59375 L 49.582031 49.59375 Z M 49.582031 4"/></clipPath><clipPath id="g"><path d="M 75.957031 27.304688 L 122.710938 46.921875 L 100.410156 26.332031 L 53.660156 6.707031 Z M 125.824219 49.566406 C 125.742188 49.566406 125.652344 49.550781 125.574219 49.515625 L 75.355469 28.441406 C 75.285156 28.410156 75.222656 28.371094 75.167969 28.320312 L 50.109375 5.175781 C 49.882812 4.96875 49.839844 4.621094 50.007812 4.359375 C 50.175781 4.097656 50.503906 3.996094 50.792969 4.113281 L 101.011719 25.191406 C 101.082031 25.21875 101.144531 25.261719 101.199219 25.3125 L 126.257812 48.453125 C 126.488281 48.664062 126.53125 49.011719 126.363281 49.269531 C 126.242188 49.460938 126.035156 49.566406 125.824219 49.566406 Z M 125.824219 49.566406"/></clipPath><clipPath id="h"><path d="M 87.351562 25.027344 L 126.585938 25.027344 L 126.585938 108.628906 L 87.351562 108.628906 Z M 87.351562 25.027344"/></clipPath><clipPath id="i"><path d="M 88.984375 84.460938 L 112.945312 106.59375 L 125.117188 49.148438 L 101.160156 27.019531 Z M 113.339844 108.472656 C 113.183594 108.472656 113.027344 108.414062 112.90625 108.300781 L 87.84375 85.160156 C 87.679688 85.003906 87.605469 84.777344 87.65625 84.554688 L 100.136719 25.648438 C 100.183594 25.425781 100.347656 25.242188 100.570312 25.167969 C 100.789062 25.101562 101.027344 25.152344 101.199219 25.3125 L 126.257812 48.453125 C 126.425781 48.605469 126.496094 48.839844 126.449219 49.058594 L 113.96875 107.960938 C 113.921875 108.1875 113.753906 108.371094 113.535156 108.441406 C 113.46875 108.460938 113.402344 108.472656 113.339844 108.472656 Z M 113.339844 108.472656"/></clipPath><clipPath id="j"><path d="M 30.148438 84.429688 L 113.386719 84.429688 L 113.386719 123.296875 L 30.148438 123.296875 Z M 30.148438 84.429688"/></clipPath><clipPath id="k"><path d="M 113.339844 107.832031 L 55.40625 123.15625 L 30.34375 100.011719 L 88.28125 84.6875 Z M 113.339844 107.832031"/></clipPath><clipPath id="l"><path d="M 6.3125 49.59375 L 56.183594 49.59375 L 56.183594 124 L 6.3125 124 Z M 6.3125 49.59375"/></clipPath><clipPath id="m"><path d="M 30.871094 99.628906 L 53.417969 120.449219 L 31.5625 74.105469 L 9.015625 53.285156 Z M 55.40625 123.796875 C 55.246094 123.796875 55.089844 123.742188 54.96875 123.628906 L 29.910156 100.484375 C 29.847656 100.425781 29.796875 100.363281 29.761719 100.289062 L 6.449219 50.851562 C 6.316406 50.574219 6.402344 50.242188 6.652344 50.058594 C 6.898438 49.878906 7.238281 49.898438 7.464844 50.105469 L 32.523438 73.25 C 32.582031 73.304688 32.632812 73.375 32.667969 73.445312 L 55.984375 122.882812 C 56.113281 123.160156 56.03125 123.492188 55.78125 123.671875 C 55.667969 123.757812 55.53125 123.796875 55.40625 123.796875 Z M 55.40625 123.796875"/></clipPath><clipPath id="n"><path d="M 6.3125 4 L 76.347656 4 L 76.347656 74.527344 L 6.3125 74.527344 Z M 6.3125 4"/></clipPath><clipPath id="o"><path d="M 7.941406 50.546875 L 32.058594 72.820312 L 74.691406 27.878906 L 50.574219 5.605469 Z M 32.085938 74.363281 C 31.933594 74.363281 31.773438 74.304688 31.652344 74.191406 L 6.59375 51.050781 C 6.46875 50.933594 6.394531 50.769531 6.386719 50.597656 C 6.382812 50.425781 6.445312 50.261719 6.566406 50.136719 L 50.078125 4.265625 C 50.320312 4.011719 50.722656 3.996094 50.976562 4.234375 L 76.035156 27.375 C 76.164062 27.492188 76.238281 27.660156 76.242188 27.828125 C 76.25 28 76.1875 28.167969 76.066406 28.292969 L 32.550781 74.160156 C 32.425781 74.292969 32.257812 74.363281 32.085938 74.363281 Z M 32.085938 74.363281"/></clipPath></defs><g><g><g><path d="M 11.472656 0 L 19.773438 0 L 26.289062 -18.824219 L 32.636719 0 L 40.9375 0 L 52.523438 -36.761719 L 44.445312 -36.761719 L 36.871094 -10.25 L 28.738281 -36.761719 L 20.386719 -36.761719 L 23.058594 -28.070312 L 16.484375 -9.636719 L 8.355469 -36.761719 L -0.0546875 -36.761719 Z M 11.472656 0" transform="translate(159.156 83.925)"/></g></g></g><g><g><g><path d="M 25.621094 0 L 33.976562 0 L 33.976562 -36.761719 L 25.621094 -36.761719 L 25.621094 -21.832031 L 12.421875 -21.832031 L 12.421875 -36.761719 L 4.066406 -36.761719 L 4.066406 0 L 12.421875 0 L 12.421875 -15.371094 L 25.621094 -15.371094 Z M 25.621094 0" transform="translate(212.734 83.925)"/></g></g></g><g><g><g><path d="M -0.0546875 0 L 8.410156 0 L 10.75 -7.242188 L 23.894531 -7.242188 L 26.234375 0 L 35.035156 0 L 21.609375 -36.761719 L 13.367188 -36.761719 Z M 17.320312 -27.738281 L 22.167969 -13.199219 L 12.476562 -13.199219 Z M 17.320312 -27.738281" transform="translate(251.887 83.925)"/></g></g></g><g><g><g><path d="M 11.753906 0 L 20.105469 0 L 20.105469 -30.300781 L 30.746094 -30.300781 L 30.746094 -36.761719 L 1.113281 -36.761719 L 1.113281 -30.300781 L 11.753906 -30.300781 Z M 11.753906 0" transform="translate(287.977 83.925)"/></g></g></g><g><g><g><path d="M 15.09375 0.558594 C 23.894531 0.558594 29.742188 -4.566406 29.742188 -11.25 C 29.742188 -16.429688 26.289062 -19.9375 20.105469 -21.277344 L 15.707031 -22.222656 C 12.753906 -22.835938 11.25 -24.117188 11.25 -26.34375 C 11.25 -28.851562 13.253906 -30.632812 16.820312 -30.632812 C 19.882812 -30.632812 23.113281 -29.296875 24.730469 -26.789062 L 29.910156 -31.96875 C 27.679688 -35.257812 22.5 -37.316406 17.15625 -37.316406 C 8.746094 -37.316406 2.839844 -32.191406 2.839844 -25.453125 C 2.839844 -20.328125 6.183594 -16.820312 12.476562 -15.484375 L 16.875 -14.535156 C 20.050781 -13.867188 21.386719 -12.421875 21.386719 -10.359375 C 21.386719 -7.851562 19.382812 -6.125 15.652344 -6.125 C 11.976562 -6.125 8.074219 -7.742188 6.070312 -10.582031 L 1.226562 -5.070312 C 3.789062 -1.390625 9.636719 0.558594 15.09375 0.558594 Z M 15.09375 0.558594" transform="translate(334.203 83.925)"/></g></g></g><g><g><g><path d="M 11.753906 0 L 20.105469 0 L 20.105469 -30.300781 L 30.746094 -30.300781 L 30.746094 -36.761719 L 1.113281 -36.761719 L 1.113281 -30.300781 L 11.753906 -30.300781 Z M 11.753906 0" transform="translate(367.23 83.925)"/></g></g></g><g><g><g><path d="M -0.0546875 0 L 8.410156 0 L 10.75 -7.242188 L 23.894531 -7.242188 L 26.234375 0 L 35.035156 0 L 21.609375 -36.761719 L 13.367188 -36.761719 Z M 17.320312 -27.738281 L 22.167969 -13.199219 L 12.476562 -13.199219 Z M 17.320312 -27.738281" transform="translate(400.2 83.925)"/></g></g></g><g><g><g><path d="M 20.550781 0.558594 C 27.070312 0.558594 32.359375 -2.507812 34.921875 -8.074219 L 28.238281 -12.421875 C 26.457031 -8.296875 23.558594 -6.40625 19.996094 -6.40625 C 14.480469 -6.40625 11.082031 -11.082031 11.082031 -18.378906 C 11.082031 -25.675781 14.480469 -30.355469 19.996094 -30.355469 C 23.558594 -30.355469 26.457031 -28.460938 28.238281 -24.339844 L 34.921875 -28.683594 C 32.359375 -34.253906 27.070312 -37.316406 20.550781 -37.316406 C 10.082031 -37.316406 2.226562 -28.90625 2.226562 -18.378906 C 2.226562 -7.851562 10.082031 0.558594 20.550781 0.558594 Z M 20.550781 0.558594" transform="translate(436.29 83.925)"/></g></g></g><g clip-path="url(#a)"><g><g><g><path d="M 4.066406 0 L 12.421875 0 L 12.421875 -10.082031 L 16.652344 -15.429688 L 26.234375 0 L 35.757812 0 L 22.558594 -20.496094 L 35.089844 -36.761719 L 25.898438 -36.761719 L 12.421875 -18.992188 L 12.421875 -36.761719 L 4.066406 -36.761719 Z M 4.066406 0" transform="translate(473.828 83.925)"/></g></g></g></g><path fill="#00B84F" d="M 7.796875 50.699219 L 30.695312 99.257812 L 87.734375 84.167969 L 100.027344 26.167969 L 50.707031 5.46875 Z M 30.34375 100.65625 C 30.097656 100.65625 29.871094 100.515625 29.761719 100.289062 L 6.449219 50.851562 C 6.335938 50.613281 6.382812 50.328125 6.566406 50.136719 L 50.078125 4.265625 C 50.261719 4.070312 50.546875 4.011719 50.789062 4.113281 L 101.011719 25.191406 C 101.292969 25.308594 101.457031 25.617188 101.390625 25.917969 L 88.90625 84.820312 C 88.855469 85.054688 88.675781 85.246094 88.441406 85.304688 L 30.503906 100.632812 C 30.449219 100.648438 30.394531 100.65625 30.34375 100.65625"/><g clip-path="url(#b)"><g clip-path="url(#c)"><path fill="#00B84F" d="M 7.796875 50.699219 L 30.695312 99.257812 L 87.734375 84.167969 L 100.027344 26.167969 L 50.707031 5.46875 Z M 30.34375 100.65625 C 30.097656 100.65625 29.871094 100.515625 29.761719 100.289062 L 6.449219 50.851562 C 6.335938 50.613281 6.382812 50.328125 6.566406 50.136719 L 50.078125 4.265625 C 50.261719 4.070312 50.546875 4.011719 50.789062 4.113281 L 101.011719 25.191406 C 101.292969 25.308594 101.457031 25.617188 101.390625 25.917969 L 88.90625 84.820312 C 88.855469 85.054688 88.675781 85.246094 88.441406 85.304688 L 30.503906 100.632812 C 30.449219 100.648438 30.394531 100.65625 30.34375 100.65625"/></g></g><path fill="#00B84F" d="M 32.855469 73.84375 L 55.757812 122.398438 L 112.792969 107.308594 L 125.085938 49.3125 L 75.761719 28.613281 Z M 55.40625 123.796875 C 55.160156 123.796875 54.929688 123.65625 54.820312 123.429688 L 31.507812 73.992188 C 31.394531 73.753906 31.441406 73.472656 31.621094 73.277344 L 75.140625 27.410156 C 75.324219 27.214844 75.605469 27.15625 75.851562 27.257812 L 126.070312 48.332031 C 126.355469 48.453125 126.511719 48.757812 126.449219 49.058594 L 113.96875 107.960938 C 113.917969 108.199219 113.738281 108.386719 113.503906 108.449219 L 55.566406 123.773438 C 55.511719 123.789062 55.457031 123.796875 55.40625 123.796875"/><g clip-path="url(#d)"><g clip-path="url(#e)"><path fill="#00B84F" d="M 32.855469 73.84375 L 55.757812 122.398438 L 112.792969 107.308594 L 125.085938 49.3125 L 75.761719 28.613281 Z M 55.40625 123.796875 C 55.160156 123.796875 54.929688 123.65625 54.820312 123.429688 L 31.507812 73.992188 C 31.394531 73.753906 31.441406 73.472656 31.621094 73.277344 L 75.140625 27.410156 C 75.324219 27.214844 75.605469 27.15625 75.851562 27.257812 L 126.070312 48.332031 C 126.355469 48.453125 126.511719 48.757812 126.449219 49.058594 L 113.96875 107.960938 C 113.917969 108.199219 113.738281 108.386719 113.503906 108.449219 L 55.566406 123.773438 C 55.511719 123.789062 55.457031 123.796875 55.40625 123.796875"/></g></g><path fill="#00B84F" d="M 75.957031 27.304688 L 122.710938 46.921875 L 100.410156 26.332031 L 53.660156 6.707031 Z M 125.824219 49.566406 C 125.742188 49.566406 125.652344 49.550781 125.574219 49.515625 L 75.355469 28.441406 C 75.285156 28.410156 75.222656 28.371094 75.167969 28.320312 L 50.109375 5.175781 C 49.882812 4.96875 49.839844 4.621094 50.007812 4.359375 C 50.175781 4.097656 50.503906 3.996094 50.792969 4.113281 L 101.011719 25.191406 C 101.082031 25.21875 101.144531 25.261719 101.199219 25.3125 L 126.257812 48.453125 C 126.488281 48.664062 126.53125 49.011719 126.363281 49.269531 C 126.242188 49.460938 126.035156 49.566406 125.824219 49.566406"/><g clip-path="url(#f)"><g clip-path="url(#g)"><path fill="#00B84F" d="M 75.957031 27.304688 L 122.710938 46.921875 L 100.410156 26.332031 L 53.660156 6.707031 Z M 125.824219 49.566406 C 125.742188 49.566406 125.652344 49.550781 125.574219 49.515625 L 75.355469 28.441406 C 75.285156 28.410156 75.222656 28.371094 75.167969 28.320312 L 50.109375 5.175781 C 49.882812 4.96875 49.839844 4.621094 50.007812 4.359375 C 50.175781 4.097656 50.503906 3.996094 50.792969 4.113281 L 101.011719 25.191406 C 101.082031 25.21875 101.144531 25.261719 101.199219 25.3125 L 126.257812 48.453125 C 126.488281 48.664062 126.53125 49.011719 126.363281 49.269531 C 126.242188 49.460938 126.035156 49.566406 125.824219 49.566406"/></g></g><path fill="#00B84F" d="M 88.984375 84.460938 L 112.945312 106.59375 L 125.117188 49.148438 L 101.160156 27.019531 Z M 113.339844 108.472656 C 113.183594 108.472656 113.027344 108.414062 112.90625 108.300781 L 87.84375 85.160156 C 87.679688 85.003906 87.605469 84.777344 87.65625 84.554688 L 100.136719 25.648438 C 100.183594 25.425781 100.347656 25.242188 100.570312 25.167969 C 100.789062 25.101562 101.027344 25.152344 101.199219 25.3125 L 126.257812 48.453125 C 126.425781 48.605469 126.496094 48.839844 126.449219 49.058594 L 113.96875 107.960938 C 113.921875 108.1875 113.753906 108.371094 113.535156 108.441406 C 113.46875 108.460938 113.402344 108.472656 113.339844 108.472656"/><g clip-path="url(#h)"><g clip-path="url(#i)"><path fill="#00B84F" d="M 88.984375 84.460938 L 112.945312 106.59375 L 125.117188 49.148438 L 101.160156 27.019531 Z M 113.339844 108.472656 C 113.183594 108.472656 113.027344 108.414062 112.90625 108.300781 L 87.84375 85.160156 C 87.679688 85.003906 87.605469 84.777344 87.65625 84.554688 L 100.136719 25.648438 C 100.183594 25.425781 100.347656 25.242188 100.570312 25.167969 C 100.789062 25.101562 101.027344 25.152344 101.199219 25.3125 L 126.257812 48.453125 C 126.425781 48.605469 126.496094 48.839844 126.449219 49.058594 L 113.96875 107.960938 C 113.921875 108.1875 113.753906 108.371094 113.535156 108.441406 C 113.46875 108.460938 113.402344 108.472656 113.339844 108.472656"/></g></g><path d="M 113.339844 107.832031 L 55.40625 123.15625 L 30.34375 100.011719 L 88.28125 84.6875 L 113.339844 107.832031"/><g clip-path="url(#j)"><g clip-path="url(#k)"><path fill="#00B84F" d="M 31.636719 100.335938 L 55.582031 122.445312 L 112.046875 107.507812 L 88.101562 85.398438 Z M 55.40625 123.796875 C 55.242188 123.796875 55.089844 123.738281 54.96875 123.628906 L 29.910156 100.484375 C 29.738281 100.324219 29.664062 100.085938 29.722656 99.859375 C 29.777344 99.632812 29.953125 99.453125 30.179688 99.394531 L 88.117188 84.066406 C 88.328125 84.011719 88.554688 84.066406 88.714844 84.214844 L 113.773438 107.359375 C 113.945312 107.515625 114.019531 107.757812 113.960938 107.984375 C 113.90625 108.210938 113.730469 108.386719 113.503906 108.449219 L 55.566406 123.773438 C 55.515625 123.789062 55.457031 123.796875 55.40625 123.796875"/></g></g><path fill="#00B84F" d="M 30.871094 99.628906 L 53.417969 120.449219 L 31.5625 74.105469 L 9.015625 53.285156 Z M 55.40625 123.796875 C 55.246094 123.796875 55.089844 123.742188 54.96875 123.628906 L 29.910156 100.484375 C 29.847656 100.425781 29.796875 100.363281 29.761719 100.289062 L 6.449219 50.851562 C 6.316406 50.574219 6.402344 50.242188 6.652344 50.058594 C 6.898438 49.878906 7.238281 49.898438 7.464844 50.105469 L 32.523438 73.25 C 32.582031 73.304688 32.632812 73.375 32.667969 73.445312 L 55.984375 122.882812 C 56.113281 123.160156 56.03125 123.492188 55.78125 123.671875 C 55.667969 123.757812 55.53125 123.796875 55.40625 123.796875"/><g clip-path="url(#l)"><g clip-path="url(#m)"><path fill="#00B84F" d="M 30.871094 99.628906 L 53.417969 120.449219 L 31.5625 74.105469 L 9.015625 53.285156 Z M 55.40625 123.796875 C 55.246094 123.796875 55.089844 123.742188 54.96875 123.628906 L 29.910156 100.484375 C 29.847656 100.425781 29.796875 100.363281 29.761719 100.289062 L 6.449219 50.851562 C 6.316406 50.574219 6.402344 50.242188 6.652344 50.058594 C 6.898438 49.878906 7.238281 49.898438 7.464844 50.105469 L 32.523438 73.25 C 32.582031 73.304688 32.632812 73.375 32.667969 73.445312 L 55.984375 122.882812 C 56.113281 123.160156 56.03125 123.492188 55.78125 123.671875 C 55.667969 123.757812 55.53125 123.796875 55.40625 123.796875"/></g></g><path fill="#00B84F" d="M 7.941406 50.546875 L 32.058594 72.820312 L 74.691406 27.878906 L 50.574219 5.605469 Z M 32.085938 74.363281 C 31.933594 74.363281 31.773438 74.304688 31.652344 74.191406 L 6.59375 51.050781 C 6.46875 50.933594 6.394531 50.769531 6.386719 50.597656 C 6.382812 50.425781 6.445312 50.261719 6.566406 50.136719 L 50.078125 4.265625 C 50.320312 4.011719 50.722656 3.996094 50.976562 4.234375 L 76.035156 27.375 C 76.164062 27.492188 76.238281 27.660156 76.242188 27.828125 C 76.25 28 76.1875 28.167969 76.066406 28.292969 L 32.550781 74.160156 C 32.425781 74.292969 32.257812 74.363281 32.085938 74.363281"/><g clip-path="url(#n)"><g clip-path="url(#o)"><path fill="#00B84F" d="M 7.941406 50.546875 L 32.058594 72.820312 L 74.691406 27.878906 L 50.574219 5.605469 Z M 32.085938 74.363281 C 31.933594 74.363281 31.773438 74.304688 31.652344 74.191406 L 6.59375 51.050781 C 6.46875 50.933594 6.394531 50.769531 6.386719 50.597656 C 6.382812 50.425781 6.445312 50.261719 6.566406 50.136719 L 50.078125 4.265625 C 50.320312 4.011719 50.722656 3.996094 50.976562 4.234375 L 76.035156 27.375 C 76.164062 27.492188 76.238281 27.660156 76.242188 27.828125 C 76.25 28 76.1875 28.167969 76.066406 28.292969 L 32.550781 74.160156 C 32.425781 74.292969 32.257812 74.363281 32.085938 74.363281"/></g></g><path fill="#00B84F" d="M 75.722656 28.855469 L 68.347656 63.796875 L 89.484375 58.207031 Z M 90.394531 58.628906 L 98.828125 76.617188 L 124.421875 49.625 Z M 33.085938 73.789062 L 62.953125 86.25 L 67.503906 64.683594 Z M 63.558594 86.503906 L 82.109375 94.246094 L 98.355469 77.117188 L 89.761719 58.796875 L 68.199219 64.5 Z M 82.746094 94.507812 L 112.289062 106.835938 L 98.644531 77.742188 Z M 63.425781 87.140625 L 56.148438 121.617188 L 81.636719 94.742188 Z M 55.601562 122.980469 C 55.550781 122.980469 55.5 122.972656 55.453125 122.945312 C 55.324219 122.878906 55.257812 122.738281 55.285156 122.597656 L 62.824219 86.890625 L 31.964844 74.019531 C 31.835938 73.964844 31.757812 73.835938 31.769531 73.699219 C 31.777344 73.558594 31.875 73.445312 32.007812 73.410156 L 67.65625 63.980469 L 75.289062 27.785156 C 75.320312 27.648438 75.429688 27.546875 75.570312 27.53125 C 75.703125 27.515625 75.835938 27.589844 75.894531 27.714844 L 90.113281 58.039062 L 125.351562 48.71875 C 125.488281 48.683594 125.636719 48.742188 125.710938 48.863281 C 125.78125 48.988281 125.765625 49.144531 125.664062 49.25 L 99.121094 77.242188 L 113.222656 107.316406 C 113.277344 107.4375 113.257812 107.582031 113.164062 107.675781 C 113.074219 107.773438 112.929688 107.800781 112.808594 107.75 L 82.273438 95.007812 L 55.832031 122.882812 C 55.773438 122.949219 55.6875 122.980469 55.601562 122.980469"/><path fill="#00B84F" d="M 30.636719 100.253906 L 30.621094 100.253906 C 30.445312 100.242188 30.308594 100.09375 30.316406 99.917969 L 31.769531 73.703125 C 31.773438 73.679688 31.773438 73.660156 31.777344 73.636719 L 50.378906 5.007812 C 50.40625 4.910156 50.476562 4.832031 50.570312 4.792969 C 50.664062 4.753906 50.765625 4.761719 50.855469 4.8125 L 125.160156 48.300781 C 125.3125 48.390625 125.363281 48.589844 125.273438 48.742188 C 125.183594 48.894531 124.988281 48.945312 124.835938 48.855469 L 50.890625 5.578125 L 32.40625 73.773438 L 30.957031 99.953125 C 30.949219 100.121094 30.808594 100.253906 30.636719 100.253906"/><path fill="#00B84F" d="M 7.511719 50.898438 C 7.375 50.898438 7.25 50.816406 7.207031 50.679688 C 7.148438 50.511719 7.242188 50.332031 7.410156 50.277344 L 75.503906 27.542969 C 75.527344 27.539062 75.550781 27.535156 75.578125 27.53125 L 100.738281 25.460938 C 100.910156 25.445312 101.070312 25.578125 101.082031 25.753906 C 101.097656 25.929688 100.96875 26.085938 100.789062 26.101562 L 75.667969 28.164062 L 7.613281 50.878906 C 7.578125 50.890625 7.542969 50.898438 7.511719 50.898438"/></svg>